<?xml version="1.0" standalone="no"?>
<!DOCTYPE svg PUBLIC "-//W3C//DTD SVG 20010904//EN"
 "http://www.w3.org/TR/2001/REC-SVG-20010904/DTD/svg10.dtd">
<svg version="1.0" xmlns="http://www.w3.org/2000/svg"
 width="1024.000000pt" height="1024.000000pt" viewBox="0 0 1024.000000 1024.000000"
 preserveAspectRatio="xMidYMid meet">
<metadata>
Created by potrace 1.11, written by Peter Selinger 2001-2013
</metadata>
<g transform="translate(0.000000,1024.000000) scale(0.100000,-0.100000)"
fill="#000000" stroke="none">
<path d="M8287 9804 c-1 -1 -38 -5 -82 -9 -265 -22 -517 -105 -794 -261 -207
-117 -496 -408 -628 -632 -133 -226 -226 -504 -251 -745 -14 -138 -8 -384 13
-522 3 -16 7 -50 9 -75 5 -45 14 -123 21 -170 2 -14 6 -43 9 -65 3 -22 8 -65
12 -95 24 -181 29 -261 28 -440 -1 -169 -7 -229 -39 -408 -57 -311 -316 -864
-618 -1317 -312 -469 -585 -704 -1017 -875 -53 -21 -95 -38 -260 -100 -316
-118 -377 -145 -505 -221 -403 -238 -708 -634 -835 -1085 -17 -60 -33 -122
-35 -139 -3 -16 -7 -41 -10 -55 -58 -309 -21 -681 96 -978 59 -150 195 -394
252 -454 7 -7 28 -33 47 -58 130 -172 395 -380 615 -484 44 -21 88 -42 97 -47
19 -9 183 -68 208 -74 8 -2 47 -11 85 -20 473 -112 975 -33 1390 219 489 297
823 825 881 1391 14 134 8 390 -12 487 -8 44 -25 143 -29 178 -3 19 -8 46 -11
60 -7 31 -8 32 -38 215 -33 195 -43 304 -40 445 2 120 5 152 30 285 49 268
193 614 427 1020 271 472 544 795 852 1006 79 55 227 141 295 171 19 9 69 32
110 51 41 19 120 54 175 77 88 37 324 143 455 203 46 21 211 116 220 127 3 3
34 26 70 52 68 48 87 64 184 157 177 169 327 391 425 629 36 88 84 240 95 302
2 14 9 48 15 75 18 88 22 127 26 290 4 177 -5 272 -40 430 -8 39 -18 80 -20
92 -15 65 -84 242 -132 338 -135 270 -340 512 -573 675 -47 33 -90 63 -95 67
-54 39 -266 142 -365 178 -141 50 -307 86 -465 100 -63 6 -244 12 -248 9z"/>
<path d="M1828 9745 c-2 -1 -46 -5 -98 -9 -105 -7 -141 -12 -215 -27 -27 -6
-63 -13 -80 -16 -63 -10 -254 -77 -352 -123 -395 -186 -694 -479 -883 -865
-94 -192 -152 -385 -177 -585 -15 -122 -9 -417 10 -530 55 -315 172 -585 365
-837 65 -85 201 -227 271 -283 25 -19 49 -40 55 -45 22 -20 113 -82 186 -126
185 -111 386 -188 596 -229 742 -143 1480 166 1903 797 87 131 147 254 217
448 4 11 8 25 9 30 2 6 10 35 19 65 8 30 18 69 21 85 3 17 12 71 21 120 17 99
23 337 11 455 -23 229 -74 413 -172 618 -180 376 -482 681 -857 865 -111 54
-290 120 -357 132 -19 3 -37 8 -41 10 -18 11 -179 34 -285 41 -49 3 -107 7
-127 8 -21 2 -39 2 -40 1z"/>
</g>
</svg>
